<?xml version="1.0" encoding="UTF-8"?>
<svg width="174px" height="79px" viewBox="0 0 174 79" version="1.1" xmlns="http://www.w3.org/2000/svg" xmlns:xlink="http://www.w3.org/1999/xlink">
    <!-- Generator: Sketch 51.3 (57544) - http://www.bohemiancoding.com/sketch -->
    <title>next-one-color-logo</title>
    <desc>Created with Sketch.</desc>
    <defs>
        <polygon id="path-1" points="0 0.346112903 145.338005 0.346112903 145.338005 68.1657924 0 68.1657924"></polygon>
    </defs>
    <g id="final" stroke="none" stroke-width="1" fill="none" fill-rule="evenodd">
        <g id="Multi-COB/LOB-V1--pop-up-Select-state-Copy" transform="translate(-171.000000, -234.000000)">
            <g id="next-one-color-logo" transform="translate(171.000000, 234.000000)">
                <path d="M71,79 L71.4292362,66.565053 L73.7110823,66.1525454 L73.2807341,78.5874924 L71,79 Z M84.8423104,76.4939888 L80.0806802,68.6242731 L79.7771012,77.4119011 L77.5441835,77.8166673 L77.9734197,65.3806143 L80.5644049,64.9117049 L84.9690796,72.3578538 L85.2715466,64.0590418 L87.5189204,63.6520638 L87.0896842,76.0870108 L84.8411984,76.4939888 L84.8423104,76.4939888 Z M96.7775223,70.9887268 C96.6841134,70.429132 96.3460621,70.0210481 95.5765506,69.8297242 L94.0664399,69.4382291 C92.4873846,69.0279334 91.5466235,68.1177625 91.295309,66.6291962 C90.9183374,64.3797581 92.5162969,62.5052264 94.7481026,62.1015661 C97.8105803,61.5463951 99.0438003,63.5890264 99.2561943,64.8575149 L97.2178785,65.6095394 C97.1400378,65.1527951 96.7174737,63.8356462 94.9905209,64.1475153 C93.964135,64.3344155 93.3858893,65.1881845 93.5204426,65.982234 C93.6294197,66.6258785 94.0931282,66.9941493 94.6535816,67.1368128 L96.0902996,67.5039777 C97.9329015,67.9728872 98.8180621,68.9460954 99.0593684,70.3837894 C99.3740675,72.260533 98.1641997,74.3462952 95.6065749,74.8085691 C92.4128799,75.3858585 90.879417,73.3465449 90.5980783,71.6710784 C90.5758381,71.5516393 90.56583,71.4299882 90.57139,71.3094431 L92.6097058,70.5574186 C92.6186019,70.7122472 92.630834,70.7808141 92.6530742,70.9157361 C92.8421161,72.0316079 93.66278,73.0324641 95.2318273,72.7836324 C96.340502,72.5823552 96.9065155,71.853555 96.7775223,70.9887268 Z M111.378224,59.3345582 L111.077981,67.8423888 C110.985684,70.5950198 109.411077,72.3091934 107.162591,72.7161714 C104.718391,73.1585388 102.855773,71.961935 102.462121,69.6118583 C102.400961,69.2170454 102.378721,68.8189148 102.395401,68.4218901 L102.646715,60.9138097 L104.894089,60.5079376 L104.644999,68.1177625 C104.641663,68.3975598 104.651671,68.6563448 104.691703,68.8941172 C104.879633,70.0099889 105.592432,70.6657986 106.962429,70.4169669 C108.134489,70.2057365 108.776119,69.3232136 108.829495,67.8479184 L109.098602,59.7481717 L111.378224,59.3345582 Z M118.798672,65.5730441 L117.33193,65.8406764 L117.16624,70.6447861 L114.916642,71.0517641 L115.346991,58.6168171 L119.370246,57.8891228 C121.520874,57.4987335 122.898656,58.6090757 123.194451,60.3685919 C123.534726,62.3968463 122.552821,64.0391352 120.963757,64.8685741 L123.582543,69.4835718 L121.188383,69.9170918 L118.798672,65.5730441 Z M119.124491,63.4231387 C120.427768,63.187578 121.145015,62.2552888 120.948189,61.0885448 C120.812524,60.2756948 120.232054,59.8233741 119.20678,60.0102743 L117.528756,60.313296 L117.399762,63.7361136 L119.124491,63.4231387 Z M133.303741,64.8995398 L128.841242,65.7068603 L127.819304,68.7160644 L125.293927,69.1739146 L130.041101,55.9559773 L132.615406,55.4914916 L136.468524,67.1500838 L134.139973,67.5714388 L133.303741,64.8995398 Z M129.638553,63.3678427 L132.653215,62.8204131 L131.296561,58.4299169 L129.640777,63.3678427 L129.638553,63.3678427 Z M146.526661,65.330848 L141.763919,57.4600264 L141.458116,66.2487603 L139.227422,66.6524205 L139.657771,54.2163676 L142.247644,53.7474582 L146.652318,61.1936071 L146.954785,52.895901 L149.204383,52.4878171 L148.772923,64.9227641 L146.524437,65.330848 L146.526661,65.330848 Z M163.181247,53.6877386 L161.112907,54.7593736 C160.720367,53.7153865 159.710661,52.6083622 157.903644,52.9346081 C155.835304,53.3095145 154.393026,55.5224573 154.867854,58.346973 C155.197009,60.3099782 156.568119,61.4734044 158.424065,61.1372052 C160.069841,60.8397132 160.81044,59.5546359 161.094003,58.3359138 L163.255752,58.8158824 C162.848756,60.7036852 161.523239,62.8945097 158.606435,63.4231387 C155.578429,63.9716742 153.123109,62.0440584 152.593792,58.8977204 C151.838737,54.3999501 154.520907,51.282366 157.694586,50.6895937 C160.80488,50.1266812 162.567417,51.9171631 163.183471,53.6877386 L163.181247,53.6877386 Z M166.370494,61.7399308 L166.798618,49.3027719 L174,48 L173.912151,50.2815098 L168.978159,51.1750919 L168.86807,54.0195141 L173.346138,53.20777 L173.272745,55.3643109 L168.792453,56.1760551 L168.689036,59.0536549 L173.640821,58.156755 L173.569652,60.434947 L166.370494,61.7399308 Z" id="Fill-1" fill="#32C5F3"></path>
                <g id="Group-5">
                    <mask id="mask-2" fill="white">
                        <use xlink:href="#path-1"></use>
                    </mask>
                    <g id="Clip-4"></g>
                    <path d="M0,65.2915839 L0.0657557252,28.4556 C0.0601832061,26.2787613 1.2270687,24.8898581 3.3000458,24.5226 L6.08519084,24.0295839 C7.80375573,23.7246484 9.04196947,24.1898419 9.9291145,25.4618903 L24.3808855,43.9895032 L24.4143206,24.1419871 C24.4098626,21.9651484 25.5767481,20.5751323 27.6497252,20.2089871 L32.1523206,19.4110355 C34.2264122,19.0448903 35.3108244,20.0331484 35.3152824,22.2111 L35.2506412,59.0481968 C35.2550992,61.2239226 34.0882137,62.6128258 32.0152366,62.978971 L29.2891603,63.461971 C27.5705954,63.7669065 26.3914504,63.2916968 25.4441221,62.0274387 L10.8831298,43.2093581 L10.8418931,63.3718258 C10.8463511,65.5475516 9.67946565,66.9364548 7.66444275,67.291471 L3.16184733,68.0916484 C1.08998473,68.4566806 0.00557251908,67.4661968 0,65.2893581 L0,65.2915839 Z M42.6175115,62.6640194 C40.5021832,63.0390677 39.3965954,62.0263258 39.3910229,59.7971806 L39.4567786,22.0775516 C39.4512061,19.8484065 40.6426107,18.4261161 42.7590534,18.0499548 L65.6164122,13.988971 C67.732855,13.6128097 68.8406718,14.6244387 68.8451298,16.8535839 L68.8752214,19.9686 C68.8807939,22.1988581 67.6893893,23.6189226 65.5729466,23.9961968 L50.5772977,26.6616 L50.5605802,34.6255355 L63.1979389,32.3796968 C65.3154962,32.0035355 66.4221985,33.0173903 66.4266565,35.2465355 L66.4110534,37.3521484 C66.4155115,39.5801806 65.2842901,40.9891161 63.1689618,41.3663903 L50.5282595,43.6133419 L50.520458,51.2589871 L57.4838779,50.0548258 L65.6008092,48.6625839 C68.3759237,48.1128097 69.9830382,49.2846968 68.9632672,51.5116161 L65.8772061,56.5029871 C65.0290687,57.8696323 64.4417252,58.735471 62.6440305,59.1116323 L42.6163969,62.6640194 L42.6175115,62.6640194 Z M84.540687,32.0246806 L72.6890534,17.4623419 C71.2045344,15.5325677 72.0303817,13.5660677 74.6360916,13.1008742 L80.1395115,12.1170677 C81.7967786,11.8210355 82.8967939,12.1871806 83.9020763,13.4514387 L91.1418931,22.3791484 L98.3449313,10.8695032 C99.3502137,9.24689032 100.502611,8.47676129 102.158763,8.18072903 L107.605344,7.20693871 C110.208824,6.74174516 111.041359,8.4111 109.506687,10.8806323 L97.6216183,29.6853581 L110.65574,46.544729 C112.149176,48.5346 111.253115,50.4510194 108.708702,50.9050839 L103.145099,51.9000194 C101.488947,52.1960516 100.320947,51.7776 99.3736183,50.5055516 L91.0337863,39.7671484 L82.6816947,53.4903581 C81.6764122,55.1118581 80.5351603,55.9420839 78.8778931,56.2370032 L73.3142901,57.2330516 C70.7085802,57.6982452 69.8883053,56.0889871 71.3527634,53.5716 L84.5418015,32.0235677 L84.540687,32.0246806 Z M145.309008,3.27727742 L145.337985,6.3756 C145.343557,8.59250323 144.183359,10.0081161 142.122641,10.3820516 L133.464061,11.9545839 L133.403878,42.9645194 C133.40945,45.1825355 132.249252,46.5981484 130.188534,46.9720839 L125.948962,47.7411 C123.886015,48.1150355 122.750336,47.1178742 122.804947,44.8898419 L122.861786,13.8799065 L114.956611,15.2632452 C112.253939,15.8107935 110.688061,14.6455839 111.681084,12.4275677 L114.760458,7.4451 C115.588534,6.08624516 116.084489,5.23932581 117.836489,4.86427742 L142.163878,0.422680645 C144.22571,0.0476322581 145.301206,1.05592258 145.309008,3.27505161 L145.309008,3.27727742 Z" id="Fill-3" fill="#32C5F3" mask="url(#mask-2)"></path>
                </g>
            </g>
        </g>
    </g>
</svg>